# Blender 4.5.3 LTS
# www.blender.org
mtllib road_triangulated.mtl
o road
v 2.077445 0.054786 -4.365420
v 2.077445 0.054786 4.365420
v -2.085756 0.054786 4.365419
v -2.085755 0.054786 -4.365421
v 2.077445 0.291939 -4.365418
v 2.077444 0.291939 4.365422
v -2.085756 0.291939 4.365418
v -2.085756 0.291939 -4.365420
vn -0.0000 1.0000 -0.0000
vn -0.0000 -1.0000 -0.0000
vn -1.0000 -0.0000 -0.0000
vn -0.0000 -0.0000 -1.0000
vn 1.0000 -0.0000 -0.0000
vn -0.0000 -0.0000 1.0000
vt 0.460600 1.000000
vt 0.921300 0.000000
vt 0.921300 1.000000
vt 0.000000 1.000000
vt 0.460600 0.000000
vt 0.947500 0.000000
vt 0.973800 1.000000
vt 0.947500 1.000000
vt 0.973800 0.476800
vt 1.000000 0.953700
vt 0.973800 0.953700
vt 1.000000 0.000000
vt 1.000000 0.476800
vt 0.000000 0.000000
vt 0.973800 0.000000
s 1
usemtl road
f 4/1/1 2/2/1 1/3/1
f 5/4/2 7/5/2 8/1/2
f 2/6/3 5/7/3 1/8/3
f 3/9/4 6/10/4 2/11/4
f 4/8/5 7/2/5 3/6/5
f 5/9/6 4/12/6 1/13/6
f 4/1/1 3/5/1 2/2/1
f 5/4/2 6/14/2 7/5/2
f 2/6/3 6/15/3 5/7/3
f 3/9/4 7/13/4 6/10/4
f 4/8/5 8/3/5 7/2/5
f 5/9/6 8/15/6 4/12/6
